<svg version="1.1" id="Layer_1" xmlns="http://www.w3.org/2000/svg" xmlns:xlink="http://www.w3.org/1999/xlink" x="0px" y="0px"
	 width="100%" viewBox="0 0 500 500" enable-background="new 0 0 500 500" xml:space="preserve">
<path fill="#FAFAFA" opacity="1.000000" stroke="none" 
	d="
M471.000000,501.000000 
	C314.000031,501.000000 157.500076,501.000000 1.000084,501.000000 
	C1.000056,334.333405 1.000056,167.666824 1.000028,1.000173 
	C167.666550,1.000116 334.333099,1.000116 500.999756,1.000058 
	C500.999817,167.666519 500.999817,334.333038 500.999908,500.999756 
	C491.166656,501.000000 481.333344,501.000000 471.000000,501.000000 
M121.903336,221.507889 
	C118.700203,224.059280 115.841789,227.380951 112.221855,229.000931 
	C104.799057,232.322754 100.979721,237.693085 99.424774,245.486328 
	C96.412498,260.583588 102.901863,273.591766 116.665916,277.703949 
	C131.836838,282.236450 147.325623,281.836670 162.447876,277.605560 
	C173.164276,274.607178 178.043045,266.185852 178.585251,255.421341 
	C179.097961,245.241989 176.555130,236.286697 166.842285,230.838623 
	C158.967667,226.421616 150.431580,225.685562 141.706757,226.382523 
	C134.393188,226.966766 127.736748,226.496078 124.568298,217.996994 
	C123.484352,219.376602 122.875519,220.151489 121.903336,221.507889 
M219.829849,259.409973 
	C219.829849,262.851379 219.829849,266.292786 219.829849,269.694916 
	C223.110138,269.694916 225.852554,269.694916 228.579498,269.694916 
	C228.579498,257.317871 228.579498,245.262207 228.579498,233.323776 
	C225.500092,233.323776 222.769073,233.323776 219.612411,233.323776 
	C219.612411,238.075150 219.612411,242.493317 219.612411,247.131165 
	C214.917953,247.131165 210.668610,247.131165 205.817780,247.131165 
	C205.817780,242.340393 205.817780,237.781494 205.817780,233.317230 
	C202.474503,233.317230 199.746567,233.317230 197.140198,233.317230 
	C197.140198,245.699997 197.140198,257.746124 197.140198,269.616302 
	C200.233765,269.616302 202.958221,269.616302 206.176331,269.616302 
	C206.176331,264.491302 206.176331,259.761169 206.176331,254.882446 
	C210.013397,254.882446 213.347580,255.040970 216.658936,254.834091 
	C219.491394,254.657135 220.111679,256.026855 219.829849,259.409973 
M377.372223,236.859039 
	C377.233307,235.623367 377.094421,234.387711 376.962524,233.214264 
	C373.947174,233.214264 371.338715,233.214264 368.167175,233.214264 
	C368.167175,240.876007 368.476013,248.338547 367.970062,255.745422 
	C367.827057,257.839142 365.654816,260.867706 363.771698,261.473633 
	C361.804840,262.106506 358.561066,260.918182 356.829437,259.421997 
	C355.557037,258.322632 355.508331,255.451187 355.459808,253.356812 
	C355.304169,246.636841 355.401917,239.911026 355.401917,233.201660 
	C351.995911,233.201660 349.382904,233.201660 346.303223,233.201660 
	C346.303223,241.015030 345.986938,248.637741 346.384827,256.223022 
	C346.861053,265.301941 352.695099,270.371246 361.770355,270.343140 
	C370.984283,270.314606 376.885803,264.894135 377.270874,255.745544 
	C377.522461,249.767929 377.352936,243.772583 377.372223,236.859039 
M250.885376,251.212341 
	C248.680206,257.333740 246.475037,263.455170 244.114090,270.008972 
	C246.692688,270.008972 248.559631,270.259766 250.316666,269.928192 
	C251.678452,269.671204 253.769714,268.927826 254.033310,267.981750 
	C255.003860,264.498474 256.833038,262.860962 260.439301,263.549530 
	C264.299194,264.286530 269.844269,260.936401 271.180817,268.044617 
	C271.332092,268.849213 272.993042,269.781128 274.049805,269.918915 
	C276.264221,270.207611 278.542511,270.006470 281.319611,270.006470 
	C277.717407,260.016022 274.348053,250.679764 270.984802,241.341324 
	C267.768341,232.410461 267.771088,232.408691 258.084442,233.138321 
	C257.927979,233.150116 257.779266,233.264343 257.328796,233.460770 
	C255.302032,238.983978 253.196884,244.720810 250.885376,251.212341 
M321.533905,242.852982 
	C320.323639,239.605698 319.113373,236.358398 317.857727,232.989365 
	C315.152069,232.989365 312.626343,232.724991 310.197937,233.096558 
	C308.908295,233.293884 307.110657,234.337723 306.694702,235.435928 
	C302.412537,246.741043 298.366272,258.135498 294.144287,269.809265 
	C297.484344,269.809265 300.421204,269.809265 303.750610,269.809265 
	C304.063416,263.617676 308.090912,262.905792 313.036713,263.512115 
	C314.511047,263.692810 316.046417,263.403564 317.511963,263.617065 
	C318.363586,263.741150 319.742401,264.325684 319.845245,264.891693 
	C321.179108,272.234558 326.371857,269.815338 331.198517,269.717377 
	C327.971405,260.707977 324.902802,252.141022 321.533905,242.852982 
z"/>
<path fill="#175BB5" opacity="1.000000" stroke="none" 
	d="
M122.085014,221.217133 
	C122.875519,220.151489 123.484352,219.376602 124.568298,217.996994 
	C127.736748,226.496078 134.393188,226.966766 141.706757,226.382523 
	C150.431580,225.685562 158.967667,226.421616 166.842285,230.838623 
	C176.555130,236.286697 179.097961,245.241989 178.585251,255.421341 
	C178.043045,266.185852 173.164276,274.607178 162.447876,277.605560 
	C147.325623,281.836670 131.836838,282.236450 116.665916,277.703949 
	C102.901863,273.591766 96.412498,260.583588 99.424774,245.486328 
	C100.979721,237.693085 104.799057,232.322754 112.221855,229.000931 
	C115.841789,227.380951 118.700203,224.059280 122.085014,221.217133 
M155.077240,263.182404 
	C155.438889,261.612274 155.800552,260.042175 156.226532,258.192749 
	C144.542908,258.192749 133.328033,258.192749 122.122124,258.192749 
	C121.855537,265.205841 125.724129,270.177765 132.990906,272.395447 
	C141.672806,275.045013 149.721664,271.917786 155.077240,263.182404 
M147.024292,244.618576 
	C148.322144,246.485168 149.266724,248.948044 151.045929,250.002182 
	C152.173080,250.669968 155.107208,249.791565 156.240173,248.635590 
	C158.666565,246.159897 158.600250,242.958328 155.498077,241.004364 
	C151.903915,238.740509 148.873291,239.823547 147.024292,244.618576 
M130.820984,242.980743 
	C128.752991,242.009277 126.737572,240.496353 124.595436,240.288330 
	C123.477211,240.179718 121.285873,242.246323 121.100266,243.547440 
	C120.840096,245.371246 121.459091,247.954727 122.713318,249.166550 
	C123.783257,250.200302 127.009979,250.606430 127.980148,249.773346 
	C129.546936,248.428009 130.044159,245.837051 130.820984,242.980743 
z"/>
<path fill="#195DB6" opacity="1.000000" stroke="none" 
	d="
M219.829376,258.907166 
	C220.111679,256.026855 219.491394,254.657135 216.658936,254.834091 
	C213.347580,255.040970 210.013397,254.882446 206.176331,254.882446 
	C206.176331,259.761169 206.176331,264.491302 206.176331,269.616302 
	C202.958221,269.616302 200.233765,269.616302 197.140198,269.616302 
	C197.140198,257.746124 197.140198,245.699997 197.140198,233.317230 
	C199.746567,233.317230 202.474503,233.317230 205.817780,233.317230 
	C205.817780,237.781494 205.817780,242.340393 205.817780,247.131165 
	C210.668610,247.131165 214.917953,247.131165 219.612411,247.131165 
	C219.612411,242.493317 219.612411,238.075150 219.612411,233.323776 
	C222.769073,233.323776 225.500092,233.323776 228.579498,233.323776 
	C228.579498,245.262207 228.579498,257.317871 228.579498,269.694916 
	C225.852554,269.694916 223.110138,269.694916 219.829849,269.694916 
	C219.829849,266.292786 219.829849,262.851379 219.829376,258.907166 
z"/>
<path fill="#195DB6" opacity="1.000000" stroke="none" 
	d="
M377.372131,237.322113 
	C377.352936,243.772583 377.522461,249.767929 377.270874,255.745544 
	C376.885803,264.894135 370.984283,270.314606 361.770355,270.343140 
	C352.695099,270.371246 346.861053,265.301941 346.384827,256.223022 
	C345.986938,248.637741 346.303223,241.015030 346.303223,233.201660 
	C349.382904,233.201660 351.995911,233.201660 355.401917,233.201660 
	C355.401917,239.911026 355.304169,246.636841 355.459808,253.356812 
	C355.508331,255.451187 355.557037,258.322632 356.829437,259.421997 
	C358.561066,260.918182 361.804840,262.106506 363.771698,261.473633 
	C365.654816,260.867706 367.827057,257.839142 367.970062,255.745422 
	C368.476013,248.338547 368.167175,240.876007 368.167175,233.214264 
	C371.338715,233.214264 373.947174,233.214264 376.962524,233.214264 
	C377.094421,234.387711 377.233307,235.623367 377.372131,237.322113 
z"/>
<path fill="#175BB5" opacity="1.000000" stroke="none" 
	d="
M250.988556,250.834991 
	C253.196884,244.720810 255.302032,238.983978 257.328796,233.460770 
	C257.779266,233.264343 257.927979,233.150116 258.084442,233.138321 
	C267.771088,232.408691 267.768341,232.410461 270.984802,241.341324 
	C274.348053,250.679764 277.717407,260.016022 281.319611,270.006470 
	C278.542511,270.006470 276.264221,270.207611 274.049805,269.918915 
	C272.993042,269.781128 271.332092,268.849213 271.180817,268.044617 
	C269.844269,260.936401 264.299194,264.286530 260.439301,263.549530 
	C256.833038,262.860962 255.003860,264.498474 254.033310,267.981750 
	C253.769714,268.927826 251.678452,269.671204 250.316666,269.928192 
	C248.559631,270.259766 246.692688,270.008972 244.114090,270.008972 
	C246.475037,263.455170 248.680206,257.333740 250.988556,250.834991 
M265.439148,251.075287 
	C264.584534,248.766968 263.729889,246.458649 262.502533,243.143631 
	C260.825195,248.272507 259.539032,252.205261 258.188080,256.336121 
	C261.572388,256.336121 264.123169,256.336121 267.037872,256.336121 
	C266.542633,254.566498 266.154510,253.179626 265.439148,251.075287 
z"/>
<path fill="#175BB5" opacity="1.000000" stroke="none" 
	d="
M321.684021,243.213531 
	C324.902802,252.141022 327.971405,260.707977 331.198517,269.717377 
	C326.371857,269.815338 321.179108,272.234558 319.845245,264.891693 
	C319.742401,264.325684 318.363586,263.741150 317.511963,263.617065 
	C316.046417,263.403564 314.511047,263.692810 313.036713,263.512115 
	C308.090912,262.905792 304.063416,263.617676 303.750610,269.809265 
	C300.421204,269.809265 297.484344,269.809265 294.144287,269.809265 
	C298.366272,258.135498 302.412537,246.741043 306.694702,235.435928 
	C307.110657,234.337723 308.908295,233.293884 310.197937,233.096558 
	C312.626343,232.724991 315.152069,232.989365 317.857727,232.989365 
	C319.113373,236.358398 320.323639,239.605698 321.684021,243.213531 
M314.991608,256.634186 
	C315.543396,255.933228 316.696533,255.055176 316.550629,254.559677 
	C315.503540,251.004181 314.192474,247.526428 312.587952,242.947220 
	C310.885345,248.135651 309.577637,252.120789 308.092834,256.645538 
	C310.597107,256.645538 312.391724,256.645538 314.991608,256.634186 
z"/>
<path fill="#FCFDFE" opacity="1.000000" stroke="none" 
	d="
M154.940521,263.551453 
	C149.721664,271.917786 141.672806,275.045013 132.990906,272.395447 
	C125.724129,270.177765 121.855537,265.205841 122.122124,258.192749 
	C133.328033,258.192749 144.542908,258.192749 156.226532,258.192749 
	C155.800552,260.042175 155.438889,261.612274 154.940521,263.551453 
z"/>
<path fill="#FAFAFA" opacity="1.000000" stroke="none" 
	d="
M147.071533,244.231262 
	C148.873291,239.823547 151.903915,238.740509 155.498077,241.004364 
	C158.600250,242.958328 158.666565,246.159897 156.240173,248.635590 
	C155.107208,249.791565 152.173080,250.669968 151.045929,250.002182 
	C149.266724,248.948044 148.322144,246.485168 147.071533,244.231262 
z"/>
<path fill="#FAFAFA" opacity="1.000000" stroke="none" 
	d="
M130.907043,243.376450 
	C130.044159,245.837051 129.546936,248.428009 127.980148,249.773346 
	C127.009979,250.606430 123.783257,250.200302 122.713318,249.166550 
	C121.459091,247.954727 120.840096,245.371246 121.100266,243.547440 
	C121.285873,242.246323 123.477211,240.179718 124.595436,240.288330 
	C126.737572,240.496353 128.752991,242.009277 130.907043,243.376450 
z"/>
<path fill="#DCE5F1" opacity="1.000000" stroke="none" 
	d="
M265.602783,251.434021 
	C266.154510,253.179626 266.542633,254.566498 267.037872,256.336121 
	C264.123169,256.336121 261.572388,256.336121 258.188080,256.336121 
	C259.539032,252.205261 260.825195,248.272507 262.502533,243.143631 
	C263.729889,246.458649 264.584534,248.766968 265.602783,251.434021 
z"/>
<path fill="#DCE5F1" opacity="1.000000" stroke="none" 
	d="
M314.588989,256.639862 
	C312.391724,256.645538 310.597107,256.645538 308.092834,256.645538 
	C309.577637,252.120789 310.885345,248.135651 312.587952,242.947220 
	C314.192474,247.526428 315.503540,251.004181 316.550629,254.559677 
	C316.696533,255.055176 315.543396,255.933228 314.588989,256.639862 
z"/>
</svg>